<?xml version="1.0" encoding="utf-8"?>
<!-- Generator: Adobe Illustrator 19.2.1, SVG Export Plug-In . SVG Version: 6.00 Build 0)  -->
<svg version="1.1" id="Layer_1" xmlns="http://www.w3.org/2000/svg" xmlns:xlink="http://www.w3.org/1999/xlink" x="0px" y="0px"
	 viewBox="0 0 441.2 131.1" style="enable-background:new 0 0 441.2 131.1;" xml:space="preserve">
<style type="text/css">
	.st0{fill:#A7B1C2;}
	.st1{fill:#FFFFFF;}
	.st2{fill:#808B9B;}
</style>
<g>
	<path class="st0" d="M113.2,35.6H99V25.2h14.2V35.6z M113.2,96.6H99V38.8h14.2V96.6z"/>
	<path class="st0" d="M150.6,96.6h-14.2V50.2c0-1.8-0.8-2.6-2.5-2.6s-2.5,0.8-2.5,2.5v46.5h-14.2V38.8h14.2v1.9
		c1.9-1.6,4.8-2.3,8.8-2.3c2.6,0,4.9,0.7,7.1,2.1s3.2,3.4,3.2,6.1L150.6,96.6L150.6,96.6z"/>
	<path class="st0" d="M182.2,47.3h-8.1v49.3h-14.2V47.3h-4.8v-8.6h4.8c0-5.1,0.6-8.6,1.9-10.6s5.1-3,11.4-3h9v7.8h-2.7
		c-2.4,0-3.9,0.5-4.5,1.4s-0.9,2.4-0.9,4.5h8.1V47.3z"/>
	<path class="st0" d="M183.5,85.2V50.6c0-8.1,5.6-12.2,16.9-12.2c4.3,0,8.2,0.9,11.5,2.8s5,4.8,5,8.9v35.6c0,7.8-5.5,11.7-16.4,11.7
		C189.1,97.4,183.5,93.3,183.5,85.2z M202.6,85.6V50.2c0-1.9-0.8-2.8-2.4-2.8c-1.7,0-2.5,0.9-2.5,2.8v35.4c0,2,0.8,2.9,2.5,2.9
		C201.8,88.5,202.6,87.5,202.6,85.6z"/>
	<path class="st1" d="M254,96.6h-10.7l-1.2-1.9c-2.4,1.8-5.2,2.7-8.3,2.7c-3.6,0-6.7-0.8-9.3-2.5c-2.5-1.7-3.8-4-3.8-6.9V46.5
		c0-2.5,1-4.4,3-5.9c2-1.4,4.5-2.2,7.3-2.2c3.9,0,6.9,0.7,8.8,2.1V25.2H254V96.6z M239.8,85.8V49.9c0-1.7-0.8-2.5-2.4-2.5
		c-1.7,0-2.5,0.9-2.5,2.6v35.8c0,1.8,0.8,2.6,2.5,2.6C239,88.4,239.8,87.5,239.8,85.8z"/>
	<path class="st1" d="M291.6,62.7h-14.2V50.1c0-1.8-0.8-2.6-2.4-2.6c-1.6,0-2.4,0.8-2.4,2.5v46.5h-14.2V38.7h14.2v1.9
		c1.9-1.6,4.8-2.3,8.8-2.3c2.8,0,5.2,0.8,7.3,2.3c2,1.5,3,3.5,3,6L291.6,62.7L291.6,62.7z"/>
	<path class="st1" d="M295.2,85.2V50.6c0-8.1,5.6-12.2,16.9-12.2c4.3,0,8.2,0.9,11.5,2.8s5,4.8,5,8.9v35.6c0,7.8-5.5,11.7-16.4,11.7
		C300.8,97.4,295.2,93.3,295.2,85.2z M314.3,85.6V50.2c0-1.9-0.8-2.8-2.4-2.8c-1.7,0-2.5,0.9-2.5,2.8v35.4c0,2,0.8,2.9,2.5,2.9
		C313.5,88.5,314.3,87.5,314.3,85.6z"/>
	<path class="st1" d="M384.9,96.6h-14.2V50.4c0-1.8-0.8-2.6-2.4-2.6c-1.6,0-2.5,0.8-2.5,2.5v46.3h-14.2V50.3c0-1.8-0.8-2.6-2.4-2.6
		c-1.6,0-2.5,0.8-2.5,2.5v46.4h-14.2V38.8h14.2v2c2-1.6,4.9-2.4,8.8-2.4c3.3,0,6.3,1.3,9,3.9c2.5-2.6,5.9-3.9,10.2-3.9
		c2.5,0,4.8,0.7,6.9,2.2c2.2,1.5,3.2,3.5,3.2,6.2L384.9,96.6L384.9,96.6z"/>
	<path class="st1" d="M403.3,35.6h-14.2V25.2h14.2V35.6z M403.3,96.6h-14.2V38.8h14.2V96.6z"/>
	<path class="st1" d="M407.6,85.2V50.6c0-8.1,5.6-12.2,16.9-12.2c4.3,0,8.2,0.9,11.5,2.8s5,4.8,5,8.9v35.6c0,7.8-5.5,11.7-16.4,11.7
		C413.2,97.4,407.6,93.3,407.6,85.2z M426.7,85.6V50.2c0-1.9-0.8-2.8-2.4-2.8c-1.7,0-2.5,0.9-2.5,2.8v35.4c0,2,0.8,2.9,2.5,2.9
		C425.9,88.5,426.7,87.5,426.7,85.6z"/>
	<path class="st0" d="M309.7,129.3l0.7-2.1c0.1-0.5,0.6-0.6,1.1-0.4c1,0.4,2,0.7,3.1,0.7c1,0,2.8-0.5,2.8-2.3c0-3.6-7.3-1.3-7.3-7.8
		c0-4,3.3-5.8,6.3-5.8c0.3,0,3.1,0,4.2,0.6c0.5,0.3,0.5,0.7,0.4,1.2l-0.4,1.5c-0.2,0.8-0.7,0.9-1.1,0.8c-0.5-0.2-1.3-0.5-2.7-0.5
		c-1.2,0-2.5,0.5-2.5,2.1c0,3,7.3,1.1,7.3,7.8c0,4.3-3.3,6-6.8,6c-1.5,0-3.3-0.2-4.8-0.8C310,130.2,309.5,129.9,309.7,129.3z"/>
	<path class="st0" d="M332.3,111.6c4.8,0,8.5,3.7,8.5,9.8c0,5.3-3.1,9.6-8.5,9.6c-5.3,0-8.5-4.3-8.5-9.6
		C323.9,115.3,327.6,111.6,332.3,111.6z M332.3,127.3c3.3,0,4.1-3.3,4.1-6.4c0-2.8-1.3-5.5-4.1-5.5c-2.7,0-4.1,2.7-4.1,5.5
		C328.3,123.9,329.1,127.3,332.3,127.3z"/>
	<path class="st0" d="M342.9,112.1h2.1V109c0-4,4.3-5.5,7.2-5.5c0.7,0,2.5,0.1,3.5,0.8c0.6,0.4-0.1,0.6-0.3,1.1l-0.6,1.9
		c-0.3,0.7-0.6,0.6-1.4,0.4c-0.2,0-0.4-0.1-0.6-0.2c-1.8-0.7-3.5-0.3-3.5,1.8v2.7h3.9c0.3,0,0.5,0.3,0.5,0.5v2.5
		c0,0.3-0.3,0.5-0.5,0.5h-3.9v14.6c0,0.3-0.3,0.5-0.5,0.5h-3.2c-0.3,0-0.5-0.3-0.5-0.5v-14.5H343c-0.3,0-0.5-0.3-0.5-0.5v-2.5
		C342.4,112.3,342.6,112.1,342.9,112.1z"/>
	<path class="st0" d="M354.4,115.1v-2.5c0-0.3,0.2-0.5,0.5-0.5h2.4v-3.7c0-0.1,0.1-0.5,0.5-0.7l2.7-1c0.7-0.3,1-0.1,1,0.4v5h3.7
		c0.3,0,0.5,0.3,0.5,0.5v2.5c0,0.3-0.2,0.5-0.5,0.5h-3.7v9.6c0,2,1.7,2.4,3.5,1.8c0.3-0.1,0.1,0,0.4-0.1c0.7-0.3,1.1-0.3,1.4,0.4
		l0.6,1.9c0,0.1,0.1,0.3,0.1,0.5c0,0.1-0.2,0.3-0.5,0.5c-0.9,0.6-2.7,0.8-3.5,0.8c-2.9,0-6.2-1.4-6.2-5.5v-9.9h-2.4
		C354.6,115.6,354.4,115.3,354.4,115.1z"/>
	<path class="st0" d="M384.5,130.2l-3.4-13.8H381l-3.4,13.8c0,0.1-0.3,0.4-0.4,0.4h-4.1c-0.2,0-0.4-0.2-0.5-0.4l-5-16.8
		c-0.1-0.3,0-0.5,0.4-0.6l3.2-0.8c0.2,0,0.4,0.2,0.5,0.4l3.5,13.5l0,0l3.2-13.3c0-0.2,0.3-0.4,0.5-0.4h4.2c0.1,0,0.4,0.2,0.5,0.4
		L387,126h0.1l3.3-13.4c0-0.1,0.3-0.4,0.4-0.4h3.1c0.4,0,0.5,0.3,0.4,0.6l-4.7,17.5c0,0.1-0.3,0.4-0.5,0.4h-4.2
		C384.8,130.6,384.5,130.4,384.5,130.2z"/>
	<path class="st0" d="M406.8,127.8L406.8,127.8c-1.2,2.2-3.4,3.2-5.3,3.2c-3.4,0-5.4-1.9-5.4-5.5c0-1.7,0.6-3.2,1.5-4.2
		c2-2,6.1-2.2,9-2.2c-0.1-2.8-1.4-3.7-2.9-3.7s-3.2,0.6-4.3,1s-1.2,0.2-1.5-0.8l-0.4-1.4c-0.3-0.9,0.2-1.2,1.1-1.5
		c1.7-0.7,3.5-1.1,4.9-1.1c5,0,7,2.3,7,7.8v7c0,1.3,0.1,2.3,0.2,3.6c0,0.3-0.2,0.5-0.5,0.5h-2.8c-0.5,0-0.5-0.6-0.5-1.1V129v-1.2
		H406.8z M402.7,127.5c3,0,3.9-3.1,3.9-5.5c-1.8,0-4.9,0.1-6,1.7c-0.4,0.5-0.5,1-0.5,1.5C400.1,126.8,401.2,127.5,402.7,127.5z"/>
	<path class="st0" d="M418.9,123.8v6.3c0,0.3-0.2,0.5-0.5,0.5h-3.3c-0.3,0-0.5-0.3-0.5-0.5v-13.9c0-1.5-0.1-2.4-0.3-3.6
		c0-0.3,0.2-0.6,0.5-0.6h3c0.6,0,0.6,1.1,0.6,1.4v2.8h0.1c0.6-2.8,3.2-5,5.7-4.7c0.3,0,0.4,0.3,0.4,0.5v3.7c0,0.8-1.3,0.5-1.9,0.5
		c-1.5,0-2.8,1.1-3.2,2.7C418.9,120.4,418.9,122.4,418.9,123.8z"/>
	<path class="st0" d="M433.5,111.6c4.5,0,6.8,2.8,7.4,6.4c0.3,1.5,0.3,2.8,0.3,3.7c0,0.9-0.6,1.1-1.1,1.1h-10
		c0.3,2.9,1.9,4.5,4.4,4.5c0.9,0,1.7-0.2,2.5-0.5c0.4-0.2,1-0.1,1.2,0.4l0.5,1.9c0.2,0.7,0.2,1.1-0.5,1.4c-1.1,0.4-2.8,0.6-4.2,0.6
		c-5.1,0-8.1-3.6-8.1-9.6C425.8,116.1,428.5,111.6,433.5,111.6z M437,119.5c-0.1-2.6-1.4-4.4-3.4-4.4c-1.9,0-3.2,1.6-3.5,4.4H437z"
		/>
</g>
<g>
	<g>
		<path class="st1" d="M49.1,24.6c0,0,0,10.2,0,11.1c0,3.7,0,7.5,0,11.2c0,0.3,0,0.6,0,2.1c0,0.4-0.3-0.2-1.6-1.4
			c-0.3-0.3-0.7-0.7-1-1c-1.3-1.3-2.6-2.6-4-4c-2.6-2.6-5.3-5.3-7.9-7.9s-5.3-5.3-7.9-7.9c-0.7-0.7-1.4-1.4-2.1-2.1
			C32.8,24.6,40.9,24.6,49.1,24.6z"/>
		<path class="st1" d="M49.1,49.3c0,15.9,0,31.7,0,47.6c-8.2,0-16.4,0-24.5,0c-0.1-0.3-0.1-46.2,0-47.6
			C32.7,49.3,40.9,49.3,49.1,49.3z"/>
		<path class="st0" d="M49.1,24.6c0-0.1,0-0.3,0-0.4c0-7.9,0-15.9,0-23.8c0-0.1,0-0.3,0-0.4c0.3,0.2,22.7,22.6,24.6,24.6
			c0,24.1,0,48.2,0,72.4c-8.2,8.2-16.3,16.4-24.5,24.6c-8.2,0-16.4,0-24.6,0C16.4,113.4,8.1,105.2,0,97c0-15.9,0-31.8,0-47.7
			c3.4-3.5,6.9-6.9,10.3-10.4c2.6-2.6,5.2-5.2,7.8-7.8c1.2-1.2,2.3-2.3,3.5-3.5c0.2-0.2,3.1-3,3.1-3c0,0.1,0.1,0.1,0.1,0.2
			c1,1,2,2,3,3c3.4,3.4,6.9,6.9,10.3,10.3c3.5,3.5,7,7,10.5,10.6c0.1,0.1,0.2,0.2,0.3,0.3c0.1,0.1,0.2,0.2,0.3,0.3
			c0-0.2,0-0.3,0-0.4c0-8,0-15.9,0-23.9C49.1,24.8,49.1,24.7,49.1,24.6z M49.1,49.3c-8.2,0-16.4,0-24.6,0c-0.1,1.4,0,47.3,0,47.6
			c8.2,0,16.3,0,24.5,0C49.1,81,49.1,65.2,49.1,49.3z"/>
		<rect x="24.5" y="96.9" class="st2" width="24.6" height="24.6"/>
		<polygon class="st2" points="24.6,24.6 24.5,49.3 49.1,49.2 		"/>
	</g>
</g>
</svg>
